HIERARCHY
ROOT Hips
{
	OFFSET 0.327225 85.456291 8.060652
	CHANNELS 6 Xposition Yposition Zposition Zrotation Yrotation Xrotation 
	JOINT Spine
	{
		OFFSET 0.000000 8.814246 -2.080107
		CHANNELS 3 Zrotation Yrotation Xrotation
		JOINT Spine1
		{
			OFFSET -0.000000 8.844141 0.000000
			CHANNELS 3 Zrotation Yrotation Xrotation
			JOINT Spine2
			{
				OFFSET 0.000000 11.682268 0.000000
				CHANNELS 3 Zrotation Yrotation Xrotation
				JOINT Spine3
				{
					OFFSET 0.000000 11.746700 0.000000
					CHANNELS 3 Zrotation Yrotation Xrotation
					JOINT Neck
					{
						OFFSET 0.000000 17.658264 0.000000
						CHANNELS 3 Zrotation Yrotation Xrotation
						JOINT Neck1
						{
							OFFSET 0.000000 5.101515 0.000000
							CHANNELS 3 Zrotation Yrotation Xrotation
							JOINT Head
							{
								OFFSET -0.000000 5.101515 -0.000000
								CHANNELS 3 Zrotation Yrotation Xrotation
								JOINT HeadEnd
								{
									OFFSET 0.000000 11.655085 0.000000
									CHANNELS 3 Zrotation Yrotation Xrotation
									End Site
									{
										OFFSET 0.000000 0.000000 0.000000
									}
								}
							}
						}
					}
					JOINT RightShoulder
					{
						OFFSET -2.625389 11.175210 -0.000000
						CHANNELS 3 Zrotation Yrotation Xrotation
						JOINT RightArm
						{
							OFFSET 0.000000 10.434715 0.000000
							CHANNELS 3 Zrotation Yrotation Xrotation
							JOINT RightForeArm
							{
								OFFSET -0.000000 29.628420 -0.000000
								CHANNELS 3 Zrotation Yrotation Xrotation
								JOINT RightHand
								{
									OFFSET 0.000000 22.857611 -0.000000
									CHANNELS 3 Zrotation Yrotation Xrotation
									JOINT RightHandThumb1
									{
										OFFSET -2.867323 3.959563 2.944291
										CHANNELS 3 Zrotation Yrotation Xrotation
										JOINT RightHandThumb2
										{
											OFFSET -0.000000 3.350399 0.000000
											CHANNELS 3 Zrotation Yrotation Xrotation
											JOINT RightHandThumb3
											{
												OFFSET -0.000000 3.756509 0.000000
												CHANNELS 3 Zrotation Yrotation Xrotation
												JOINT RightHandThumb4
												{
													OFFSET -0.000000 3.147345 0.000000
													CHANNELS 3 Zrotation Yrotation Xrotation
													End Site
													{
														OFFSET 0.000000 0.000000 0.000000
													}
												}
											}
										}
									}
									JOINT RightHandIndex1
									{
										OFFSET -0.086752 10.030893 2.345280
										CHANNELS 3 Zrotation Yrotation Xrotation
										JOINT RightHandIndex2
										{
											OFFSET -0.000000 4.061090 -0.000000
											CHANNELS 3 Zrotation Yrotation Xrotation
											JOINT RightHandIndex3
											{
												OFFSET 0.000000 3.248873 -0.000000
												CHANNELS 3 Zrotation Yrotation Xrotation
												JOINT RightHandIndex4
												{
													OFFSET 0.000000 2.639709 -0.000000
													CHANNELS 3 Zrotation Yrotation Xrotation
													End Site
													{
														OFFSET 0.000000 0.000000 0.000000
													}
												}
											}
										}
									}
									JOINT RightHandMiddle1
									{
										OFFSET 0.104102 9.502952 0.006768
										CHANNELS 3 Zrotation Yrotation Xrotation
										JOINT RightHandMiddle2
										{
											OFFSET -0.000000 4.568727 -0.000000
											CHANNELS 3 Zrotation Yrotation Xrotation
											JOINT RightHandMiddle3
											{
												OFFSET -0.000000 3.654981 -0.000000
												CHANNELS 3 Zrotation Yrotation Xrotation
												JOINT RightHandMiddle4
												{
													OFFSET -0.000000 2.741236 -0.000000
													CHANNELS 3 Zrotation Yrotation Xrotation
													End Site
													{
														OFFSET 0.000000 0.000000 0.000000
													}
												}
											}
										}
									}
									JOINT RightHandRing1
									{
										OFFSET 0.086752 8.921708 -2.267442
										CHANNELS 3 Zrotation Yrotation Xrotation
										JOINT RightHandRing2
										{
											OFFSET -0.000000 4.061090 0.000000
											CHANNELS 3 Zrotation Yrotation Xrotation
											JOINT RightHandRing3
											{
												OFFSET 0.000000 3.654981 -0.000000
												CHANNELS 3 Zrotation Yrotation Xrotation
												JOINT RightHandRing4
												{
													OFFSET 0.000000 2.741236 -0.000000
													CHANNELS 3 Zrotation Yrotation Xrotation
													End Site
													{
														OFFSET 0.000000 0.000000 0.000000
													}
												}
											}
										}
									}
									JOINT RightHandPinky1
									{
										OFFSET -0.173504 7.976997 -4.467199
										CHANNELS 3 Zrotation Yrotation Xrotation
										JOINT RightHandPinky2
										{
											OFFSET -0.000000 3.350399 0.000000
											CHANNELS 3 Zrotation Yrotation Xrotation
											JOINT RightHandPinky3
											{
												OFFSET 0.000000 2.842763 -0.000000
												CHANNELS 3 Zrotation Yrotation Xrotation
												JOINT RightHandPinky4
												{
													OFFSET -0.000000 2.639709 0.000000
													CHANNELS 3 Zrotation Yrotation Xrotation
													End Site
													{
														OFFSET 0.000000 0.000000 0.000000
													}
												}
											}
										}
									}
									JOINT RightForeArmEnd
									{
										OFFSET 0.000000 0.000000 0.000000
										CHANNELS 3 Zrotation Yrotation Xrotation
										End Site
										{
											OFFSET 0.000000 0.000000 0.000000
										}
									}
								}
								JOINT RightArmEnd
								{
									OFFSET 0.000000 0.000000 0.000000
									CHANNELS 3 Zrotation Yrotation Xrotation
									End Site
									{
										OFFSET 0.000000 0.000000 0.000000
									}
								}
							}
						}
					}
					JOINT LeftShoulder
					{
						OFFSET 2.625389 11.175210 0.000000
						CHANNELS 3 Zrotation Yrotation Xrotation
						JOINT LeftArm
						{
							OFFSET -0.000000 10.813635 0.000000
							CHANNELS 3 Zrotation Yrotation Xrotation
							JOINT LeftForeArm
							{
								OFFSET 0.000000 28.724781 -0.000000
								CHANNELS 3 Zrotation Yrotation Xrotation
								JOINT LeftHand
								{
									OFFSET 0.644384 25.716167 -0.328871
									CHANNELS 3 Zrotation Yrotation Xrotation
									JOINT LeftHandThumb1
									{
										OFFSET 2.867323 3.959563 2.944291
										CHANNELS 3 Zrotation Yrotation Xrotation
										JOINT LeftHandThumb2
										{
											OFFSET 0.000000 3.350399 -0.000000
											CHANNELS 3 Zrotation Yrotation Xrotation
											JOINT LeftHandThumb3
											{
												OFFSET 0.000000 3.756509 0.000000
												CHANNELS 3 Zrotation Yrotation Xrotation
												JOINT LeftHandThumb4
												{
													OFFSET 0.000000 3.100000 0.000000
													CHANNELS 3 Zrotation Yrotation Xrotation
													End Site
													{
														OFFSET 0.000000 0.000000 0.000000
													}
												}
											}
										}
									}
									JOINT LeftHandIndex1
									{
										OFFSET 0.086752 10.030893 2.345280
										CHANNELS 3 Zrotation Yrotation Xrotation
										JOINT LeftHandIndex2
										{
											OFFSET 0.000000 4.061090 0.000000
											CHANNELS 3 Zrotation Yrotation Xrotation
											JOINT LeftHandIndex3
											{
												OFFSET -0.000000 3.248873 -0.000000
												CHANNELS 3 Zrotation Yrotation Xrotation
												JOINT LeftHandIndex4
												{
													OFFSET -0.000000 2.639709 -0.000000
													CHANNELS 3 Zrotation Yrotation Xrotation
													End Site
													{
														OFFSET 0.000000 0.000000 0.000000
													}
												}
											}
										}
									}
									JOINT LeftHandMiddle1
									{
										OFFSET -0.104102 9.502952 0.006768
										CHANNELS 3 Zrotation Yrotation Xrotation
										JOINT LeftHandMiddle2
										{
											OFFSET 0.000000 4.568727 0.000000
											CHANNELS 3 Zrotation Yrotation Xrotation
											JOINT LeftHandMiddle3
											{
												OFFSET -0.000000 3.654981 -0.000000
												CHANNELS 3 Zrotation Yrotation Xrotation
												JOINT LeftHandMiddle4
												{
													OFFSET -0.000000 2.741236 -0.000000
													CHANNELS 3 Zrotation Yrotation Xrotation
													End Site
													{
														OFFSET 0.000000 0.000000 0.000000
													}
												}
											}
										}
									}
									JOINT LeftHandRing1
									{
										OFFSET -0.086752 8.921708 -2.267442
										CHANNELS 3 Zrotation Yrotation Xrotation
										JOINT LeftHandRing2
										{
											OFFSET 0.000000 4.061090 0.000000
											CHANNELS 3 Zrotation Yrotation Xrotation
											JOINT LeftHandRing3
											{
												OFFSET -0.000000 3.654981 -0.000000
												CHANNELS 3 Zrotation Yrotation Xrotation
												JOINT LeftHandRing4
												{
													OFFSET -0.000000 2.741236 -0.000000
													CHANNELS 3 Zrotation Yrotation Xrotation
													End Site
													{
														OFFSET 0.000000 0.000000 0.000000
													}
												}
											}
										}
									}
									JOINT LeftHandPinky1
									{
										OFFSET 0.173504 7.976997 -4.467199
										CHANNELS 3 Zrotation Yrotation Xrotation
										JOINT LeftHandPinky2
										{
											OFFSET 0.000000 3.350399 0.000000
											CHANNELS 3 Zrotation Yrotation Xrotation
											JOINT LeftHandPinky3
											{
												OFFSET 0.000000 2.842763 0.000000
												CHANNELS 3 Zrotation Yrotation Xrotation
												JOINT LeftHandPinky4
												{
													OFFSET 0.000000 2.639709 -0.000000
													CHANNELS 3 Zrotation Yrotation Xrotation
													End Site
													{
														OFFSET 0.000000 0.000000 0.000000
													}
												}
											}
										}
									}
									JOINT LeftForeArmEnd
									{
										OFFSET 0.000000 0.000000 0.000000
										CHANNELS 3 Zrotation Yrotation Xrotation
										End Site
										{
											OFFSET 0.000000 0.000000 0.000000
										}
									}
								}
								JOINT LeftArmEnd
								{
									OFFSET 0.000000 0.000000 0.000000
									CHANNELS 3 Zrotation Yrotation Xrotation
									End Site
									{
										OFFSET 0.000000 0.000000 0.000000
									}
								}
							}
						}
					}
				}
			}
		}
	}
	JOINT RightUpLeg
	{
		OFFSET -11.289943 0.000000 -0.000000
		CHANNELS 3 Zrotation Yrotation Xrotation
		JOINT RightLeg
		{
			OFFSET -0.000000 -38.200325 -0.000000
			CHANNELS 3 Zrotation Yrotation Xrotation
			JOINT RightFoot
			{
				OFFSET -0.000000 -39.900856 0.000000
				CHANNELS 3 Zrotation Yrotation Xrotation
				JOINT RightToeBase
				{
					OFFSET 0.000000 -0.000000 15.261641
					CHANNELS 3 Zrotation Yrotation Xrotation
					JOINT RightToeBaseEnd
					{
						OFFSET -0.000000 -0.000000 7.370709
						CHANNELS 3 Zrotation Yrotation Xrotation
						End Site
						{
							OFFSET 0.000000 0.000000 0.000000
						}
					}
				}
				JOINT RightLegEnd
				{
					OFFSET 0.000000 0.000000 0.000000
					CHANNELS 3 Zrotation Yrotation Xrotation
					End Site
					{
						OFFSET 0.000000 0.000000 0.000000
					}
				}
			}
			JOINT RightUpLegEnd
			{
				OFFSET 0.000000 0.000000 0.000000
				CHANNELS 3 Zrotation Yrotation Xrotation
				End Site
				{
					OFFSET 0.000000 0.000000 0.000000
				}
			}
		}
	}
	JOINT LeftUpLeg
	{
		OFFSET 11.315661 -0.000000 0.000000
		CHANNELS 3 Zrotation Yrotation Xrotation
		JOINT LeftLeg
		{
			OFFSET -0.000000 -38.200325 -0.000000
			CHANNELS 3 Zrotation Yrotation Xrotation
			JOINT LeftFoot
			{
				OFFSET -0.000000 -39.900856 0.000000
				CHANNELS 3 Zrotation Yrotation Xrotation
				JOINT LeftToeBase
				{
					OFFSET 0.000000 -0.000000 15.261641
					CHANNELS 3 Zrotation Yrotation Xrotation
					JOINT LeftToeBaseEnd
					{
						OFFSET -0.000000 0.000000 7.539996
						CHANNELS 3 Zrotation Yrotation Xrotation
						End Site
						{
							OFFSET 0.000000 0.000000 0.000000
						}
					}
				}
				JOINT LeftLegEnd
				{
					OFFSET 0.000000 0.000000 0.000000
					CHANNELS 3 Zrotation Yrotation Xrotation
					End Site
					{
						OFFSET 0.000000 0.000000 0.000000
					}
				}
			}
			JOINT LeftUpLegEnd
			{
				OFFSET 0.000000 0.000000 0.000000
				CHANNELS 3 Zrotation Yrotation Xrotation
				End Site
				{
					OFFSET 0.000000 0.000000 0.000000
				}
			}
		}
	}
}
MOTION
Frames: 5
Frame Time: 0.016667
-8.366898 87.019112 10.330426 -2.426310 6.459283 -22.023315 2.889945 -0.432144 9.264276 0.199936 -0.199353 1.707687 0.675194 -1.471834 14.859576 -0.892089 -0.106654 9.116506 6.325296 -2.209206 14.839393 -0.213066 -0.211636 0.474792 0.068605 0.069758 -21.431772 0.000000 0.000000 0.000000 92.136734 -0.609934 13.408907 44.710213 -43.402378 21.297424 -0.354236 9.735514 41.531254 14.078618 17.384481 0.848581 -3.917293 0.606135 46.563408 0.000015 0.000004 9.176309 0.000016 0.000050 6.789474 0.000034 -0.000001 -0.000037 17.383228 1.221927 -6.325643 12.229128 -0.049004 -0.427373 11.958932 0.051894 -0.412356 -0.000031 0.000003 -0.000013 15.213110 0.505920 -7.987252 11.167259 -0.072523 -0.156935 10.972299 0.006622 -0.123470 -0.000028 0.000018 0.000011 14.546132 -0.658205 -9.460445 10.767902 0.166552 0.131259 10.839544 0.001594 0.093439 -0.000009 0.001997 -0.000025 13.931957 -1.817104 -12.300639 9.743745 0.368605 0.057744 9.721870 0.010588 0.021495 -0.000586 0.000012 -0.000041 0.000000 0.000000 0.000000 0.000000 0.000000 0.000000 -89.890732 -0.025398 9.529120 -62.573074 30.311661 1.079591 -0.633136 -5.494424 54.154083 -10.079535 -30.369812 -6.414707 4.472054 -0.671659 46.697754 -0.000012 0.000033 10.401904 0.000110 -0.000003 7.347954 0.000453 -0.000002 -0.001262 -15.066124 1.208924 -6.917406 -10.107923 -0.037574 0.458548 -10.043355 0.062950 0.414431 0.000047 0.000348 0.000002 -13.868283 0.508805 -8.795359 -9.271783 -0.066583 0.163884 -9.179414 0.017198 0.134231 -0.000692 -0.000027 0.000002 -13.866675 -0.605540 -10.672035 -9.416163 0.148386 -0.188488 -9.198073 -0.018135 -0.119132 -0.001744 0.000013 -0.000000 -12.807286 -1.783548 -12.993486 -9.088398 0.306901 -0.349066 -9.011331 -0.041139 -0.327526 0.000273 0.000008 -0.000062 0.000000 0.000000 0.000000 0.000000 0.000000 0.000000 0.350041 -6.915844 22.786589 -0.139711 -0.624679 12.200923 -2.983196 -11.827821 12.906541 -1.064928 0.999335 -16.157330 0.000000 0.000000 0.000000 0.000000 0.000000 0.000000 0.000000 0.000000 0.000000 8.800846 -4.941405 17.693609 0.376659 0.972186 20.519192 -2.600027 2.904001 9.144321 0.976957 -0.737996 -18.579767 0.000000 0.000000 0.000000 0.000000 0.000000 0.000000 0.000000 0.000000 0.000000 
-8.381619 87.018402 10.325090 -2.441892 6.399039 -22.024092 2.908601 -0.436949 9.277615 0.186692 -0.193986 1.725191 0.708752 -1.494756 14.868342 -0.889549 -0.105214 9.109102 6.410241 -2.306849 14.873054 -0.205624 -0.260521 0.470081 0.095408 0.071847 -21.450096 0.000000 0.000000 0.000000 92.167458 -0.612737 13.424516 44.607098 -43.516014 21.335909 -0.327018 9.681660 40.742771 13.943407 17.320965 0.789737 -3.922947 0.606535 46.565155 0.000015 0.000004 9.184159 0.000016 0.000050 6.796282 0.000034 -0.000001 -0.000037 17.297537 1.222298 -6.383339 12.172286 -0.048673 -0.429539 11.903864 0.051815 -0.414867 -0.000031 0.000003 -0.000014 15.131170 0.506389 -8.026423 11.114796 -0.072468 -0.157987 10.918819 0.006896 -0.124809 -0.000028 0.000021 0.000011 14.439348 -0.659493 -9.436138 10.714803 0.166497 0.133083 10.784464 0.001541 0.094892 -0.000009 0.001973 -0.000024 13.802560 -1.822267 -12.219132 9.683797 0.368515 0.059924 9.664979 0.009854 0.025087 -0.000575 0.000012 -0.000041 0.000000 0.000000 0.000000 0.000000 0.000000 0.000000 -89.872154 -0.041624 9.558884 -62.393002 30.406019 1.285051 -0.678095 -5.441630 53.692963 -9.932268 -30.339146 -6.545971 4.476180 -0.672763 46.698242 -0.000012 0.000033 10.400793 0.000115 -0.000003 7.350621 0.000469 -0.000002 -0.001234 -15.034525 1.209379 -6.971517 -10.104698 -0.037468 0.464367 -10.038968 0.063276 0.420207 0.000046 0.000342 0.000002 -13.848598 0.508978 -8.803647 -9.271981 -0.066598 0.166399 -9.174582 0.017217 0.136314 -0.000711 -0.000027 0.000004 -13.909423 -0.606363 -10.594822 -9.433753 0.147825 -0.192725 -9.212474 -0.018592 -0.122551 -0.001708 0.000013 -0.000000 -12.895620 -1.787307 -12.868408 -9.113575 0.304742 -0.362839 -9.036637 -0.042441 -0.338757 0.000249 0.000008 -0.000062 0.000000 0.000000 0.000000 0.000000 0.000000 0.000000 0.383094 -6.898731 22.765980 -0.139972 -0.628103 12.175772 -3.022164 -11.799286 12.932656 -1.061762 1.001912 -16.162949 0.000000 0.000000 0.000000 0.000000 0.000000 0.000000 0.000000 0.000000 0.000000 8.847836 -4.897183 17.713175 0.377237 0.973240 20.530981 -2.630016 2.945934 9.101350 0.978616 -0.738984 -18.579365 0.000000 0.000000 0.000000 0.000000 0.000000 0.000000 0.000000 0.000000 0.000000 
-8.397002 87.018333 10.318156 -2.458394 6.340169 -22.022200 2.927854 -0.442203 9.290522 0.171689 -0.188152 1.740881 0.742677 -1.519136 14.875497 -0.886860 -0.104563 9.103508 6.489760 -2.402473 14.925116 -0.200421 -0.310172 0.473949 0.122170 0.073614 -21.475182 0.000000 0.000000 0.000000 92.192368 -0.614584 13.430957 44.556717 -43.566051 21.348663 -0.301179 9.638163 40.007668 13.855227 17.357975 0.777397 -3.926539 0.606972 46.566463 0.000015 0.000004 9.188418 0.000016 0.000050 6.800195 0.000034 -0.000001 -0.000037 17.223715 1.222785 -6.434077 12.123426 -0.048242 -0.432331 11.856551 0.051798 -0.417796 -0.000031 0.000003 -0.000014 15.063669 0.506904 -8.059581 11.071314 -0.072391 -0.159192 10.874145 0.007216 -0.126315 -0.000028 0.000023 0.000011 14.348248 -0.660840 -9.410851 10.670692 0.166431 0.135220 10.738485 0.001445 0.096599 -0.000009 0.001947 -0.000024 13.688375 -1.827525 -12.138929 9.632447 0.368419 0.063396 9.616922 0.009075 0.029686 -0.000568 0.000012 -0.000042 0.000000 0.000000 0.000000 0.000000 0.000000 0.000000 -89.850815 -0.055488 9.583541 -62.230118 30.478559 1.488907 -0.719556 -5.399837 53.261070 -9.783359 -30.329952 -6.671924 4.483902 -0.674380 46.699776 -0.000012 0.000033 10.407105 0.000119 -0.000003 7.359220 0.000479 -0.000001 -0.001202 -14.995584 1.209887 -7.018315 -10.100656 -0.037586 0.469041 -10.033849 0.063381 0.425040 0.000046 0.000343 0.000002 -13.823894 0.509161 -8.808805 -9.271935 -0.066711 0.168414 -9.170080 0.017157 0.138036 -0.000727 -0.000028 0.000007 -13.950210 -0.607283 -10.521543 -9.452566 0.147379 -0.196419 -9.227348 -0.018966 -0.125585 -0.001658 0.000013 -0.000000 -12.981045 -1.791401 -12.751934 -9.139067 0.302826 -0.375032 -9.062914 -0.043438 -0.348663 0.000224 0.000008 -0.000062 0.000000 0.000000 0.000000 0.000000 0.000000 0.000000 0.418464 -6.880258 22.738712 -0.140094 -0.631041 12.159193 -3.061744 -11.775957 12.960010 -1.057976 1.004126 -16.172333 0.000000 0.000000 0.000000 0.000000 0.000000 0.000000 0.000000 0.000000 0.000000 8.893228 -4.854406 17.727295 0.377657 0.973766 20.543541 -2.659189 2.989230 9.064138 0.980233 -0.739551 -18.581738 0.000000 0.000000 0.000000 0.000000 0.000000 0.000000 0.000000 0.000000 0.000000 
-8.412639 87.019127 10.309968 -2.474887 6.282913 -22.017376 2.947015 -0.447593 9.301722 0.155398 -0.182007 1.753936 0.776536 -1.544831 14.881977 -0.883798 -0.104833 9.100402 6.562391 -2.494476 14.995045 -0.197305 -0.359203 0.485884 0.148438 0.075145 -21.506746 0.000000 0.000000 0.000000 92.213837 -0.616987 13.428302 44.545170 -43.559994 21.347178 -0.276514 9.603742 39.322598 13.807172 17.489214 0.797537 -3.927858 0.607378 46.567154 0.000015 0.000004 9.188233 0.000016 0.000050 6.800560 0.000034 -0.000001 -0.000037 17.162300 1.223343 -6.475837 12.082010 -0.047601 -0.436041 11.816529 0.051967 -0.421409 -0.000031 0.000004 -0.000014 15.010216 0.507459 -8.084826 11.035509 -0.072246 -0.160640 10.837200 0.007616 -0.128053 -0.000028 0.000026 0.000011 14.271256 -0.662236 -9.382864 10.632969 0.166298 0.137683 10.699231 0.001271 0.098571 -0.000009 0.001921 -0.000023 13.587931 -1.832754 -12.059006 9.586760 0.368212 0.068135 9.574900 0.008197 0.035298 -0.000562 0.000011 -0.000042 0.000000 0.000000 0.000000 0.000000 0.000000 0.000000 -89.828316 -0.065993 9.602734 -62.078526 30.541250 1.696627 -0.756554 -5.366210 52.855972 -9.628448 -30.341614 -6.797071 4.494619 -0.676466 46.702271 -0.000012 0.000033 10.419901 0.000122 -0.000003 7.373066 0.000483 -0.000001 -0.001169 -14.949528 1.210472 -7.055948 -10.096496 -0.037815 0.473031 -10.028729 0.063359 0.429341 0.000046 0.000350 0.000002 -13.793506 0.509358 -8.809146 -9.271665 -0.066874 0.170069 -9.165730 0.017055 0.139513 -0.000741 -0.000028 0.000009 -13.985262 -0.608288 -10.451173 -9.470585 0.147019 -0.199681 -9.240759 -0.019277 -0.128285 -0.001593 0.000013 -0.000000 -13.058832 -1.795719 -12.643242 -9.161671 0.301101 -0.385764 -9.086935 -0.044199 -0.357264 0.000199 0.000008 -0.000062 0.000000 0.000000 0.000000 0.000000 0.000000 0.000000 0.454658 -6.860646 22.705294 -0.140141 -0.633593 12.150164 -3.101774 -11.756966 12.989676 -1.053746 1.005864 -16.185402 0.000000 0.000000 0.000000 0.000000 0.000000 0.000000 0.000000 0.000000 0.000000 8.936217 -4.812811 17.735903 0.377920 0.973715 20.555916 -2.687902 3.032996 9.032805 0.981678 -0.739676 -18.586266 0.000000 0.000000 0.000000 0.000000 0.000000 0.000000 0.000000 0.000000 0.000000 
-8.428067 87.020775 10.301038 -2.490432 6.227371 -22.009787 2.964995 -0.452693 9.310280 0.138588 -0.175922 1.763480 0.809674 -1.571885 14.888642 -0.879683 -0.106282 9.099527 6.626649 -2.579694 15.079969 -0.195703 -0.404347 0.504219 0.173177 0.076719 -21.542923 0.000000 0.000000 0.000000 92.235802 -0.621757 13.416590 44.557861 -43.504078 21.339071 -0.252642 9.579636 38.691628 13.785302 17.700756 0.830728 -3.926789 0.607744 46.567234 0.000015 0.000004 9.183628 0.000016 0.000050 6.797040 0.000034 -0.000001 -0.000038 17.111864 1.223946 -6.508959 12.046234 -0.046557 -0.440798 11.782169 0.052533 -0.425811 -0.000031 0.000004 -0.000015 14.968461 0.508062 -8.101791 11.004971 -0.071953 -0.162363 10.805877 0.008150 -0.130022 -0.000028 0.000028 0.000011 14.205668 -0.663665 -9.350459 10.598194 0.165963 0.140416 10.663371 0.000946 0.100747 -0.000010 0.001892 -0.000023 13.499858 -1.837781 -11.978148 9.543304 0.367528 0.074020 9.535485 0.006981 0.041716 -0.000558 0.000011 -0.000043 0.000000 0.000000 0.000000 0.000000 0.000000 0.000000 -89.808044 -0.072092 9.615924 -61.930580 30.602243 1.911163 -0.789513 -5.337762 52.474751 -9.465265 -30.369707 -6.924510 4.507536 -0.678970 46.705681 -0.000012 0.000034 10.438111 0.000126 -0.000003 7.391187 0.000477 -0.000001 -0.001142 -14.893142 1.211186 -7.085616 -10.090109 -0.037970 0.476753 -10.021481 0.063355 0.433427 0.000045 0.000361 0.000002 -13.753290 0.509582 -8.805223 -9.268333 -0.067020 0.171505 -9.158401 0.016965 0.140846 -0.000754 -0.000029 0.000011 -14.006755 -0.609345 -10.383521 -9.482138 0.146675 -0.202605 -9.247333 -0.019575 -0.130689 -0.001516 0.000014 -0.000000 -13.121582 -1.800038 -12.541282 -9.175091 0.299396 -0.395179 -9.102359 -0.044890 -0.364579 0.000173 0.000008 -0.000062 0.000000 0.000000 0.000000 0.000000 0.000000 0.000000 0.489892 -6.839624 22.667622 -0.140199 -0.635904 12.146445 -3.141539 -11.740169 13.021235 -1.049302 1.007173 -16.201105 0.000000 0.000000 0.000000 0.000000 0.000000 0.000000 0.000000 0.000000 0.000000 8.976311 -4.772173 17.739729 0.378020 0.973144 20.566618 -2.716292 3.076565 9.006382 0.982873 -0.739405 -18.591690 0.000000 0.000000 0.000000 0.000000 0.000000 0.000000 0.000000 0.000000 0.000000 
